<svg xmlns="http://www.w3.org/2000/svg" width="98" height="60" viewBox="0 0 98 60">
    <path fill="#000" fill-rule="nonzero" d="M.626 20.323h12.706V60H.626V20.323zM6.99 13.96C3.13 13.961 0 10.836 0 6.981 0 3.125 3.13 0 6.99 0c3.862 0 6.992 3.125 6.992 6.98 0 3.856-3.13 6.981-6.991 6.981zm15.893 8.89h16.612v12.76H22.884V22.85zm74.728 8.033c0 12.792-10.706 28.593-28.183 29.106H48.737V1.915H69.43c17.477 1.026 28.183 16.349 28.183 28.97zM67.377 48.566l2.052-.034c11.15-.479 16.725-9.953 16.725-17.545 0-7.593-5.575-17.067-16.725-17.58H60.4v35.16h6.977z"/>
</svg>